<svg width="568" height="568" xmlns="http://www.w3.org/2000/svg" xmlns:xlink="http://www.w3.org/1999/xlink" overflow="hidden"><g transform="translate(-356 -76)"><path d="M640 133C765.369 133 867 234.631 867 360 867 386.118 845.827 407.292 819.708 407.292 793.59 407.292 772.417 386.118 772.417 360 772.417 286.868 713.132 227.583 640 227.583 566.868 227.583 507.583 286.868 507.583 360 507.583 433.132 566.868 492.417 640 492.417 666.118 492.417 687.292 513.59 687.292 539.708 687.292 565.827 666.118 587 640 587 514.631 587 413 485.369 413 360 413 234.631 514.631 133 640 133Z" fill-rule="evenodd"/><path d="M564 360C564 318.026 598.026 284 640 284 681.974 284 716 318.026 716 360 716 401.974 681.974 436 640 436 598.026 436 564 401.974 564 360Z" fill-rule="evenodd"/></g></svg>