<svg width="1282" height="722" xmlns="http://www.w3.org/2000/svg" xmlns:xlink="http://www.w3.org/1999/xlink" overflow="hidden"><g transform="translate(1 1)"><path d="M1185.06 218C1207.85 218 1230.09 220.305 1251.58 224.695L1280 231.991 1280 720 904.205 720 894.836 704.603C869.431 657.911 855 604.403 855 547.53 855 365.536 1002.77 218 1185.06 218Z" fill="#1E57B3" fill-rule="evenodd" fill-opacity="0.8"/><path d="M969.697 339C1106.26 339 1223.43 422.106 1273.48 540.547L1280 558.364 1280 720 644.334 720 641.702 702.736C640.577 691.643 640 680.387 640 668.996 640 486.744 787.61 339 969.697 339Z" fill="#1E57B3" fill-rule="evenodd" fill-opacity="0.8"/><text fill="#1E57B3" font-family="DINPro-Bold,DINPro-Bold_MSFontService,sans-serif" font-weight="700" font-size="80" transform="translate(126.4 301)">n</text><text fill="#1E57B3" font-family="DINPro-Bold,DINPro-Bold_MSFontService,sans-serif" font-weight="700" font-size="80" transform="translate(172.233 301)">uclearrockstone</text><text font-family="DINPro-Regular,DINPro-Regular_MSFontService,sans-serif" font-weight="400" font-size="43" transform="translate(126.4 361)">Here is my space on Internet</text></g></svg>